# xmcd
#
# Track frame offsets: 
#        150
#        25193
#        41949
#        63658
#        85208
#        100948
#        116998
#        141525
#        160065
#        189578
#        213201
#        227601
#        241126
#        258646
#        281224
#        306664
#        322317
#        340974
#
# Disc length: 4790 seconds
#
# Revision: 0
# Processed by: cddbd v1.5.2PL0 Copyright (c) Steve Scherf et al.
# Submitted via: ExactAudioCopy v1.0b1
#
DISCID=1f12b412
DTITLE=Various Artist - Blues#2
DYEAR=1900
DGENRE=Blues
TTITLE0=01. HULA MONSTERS - She Don't Mind
TTITLE1=02. Tropical Whiskey Band - Never Can Tell
TTITLE2=03. Little Charlie And The Nightcats - Tag (You're It)
TTITLE3=04. John Lee Hooker - Chill Out
TTITLE4=05. Johnny Lang - Matchbox
TTITLE5=06. John Mellencamp - Joliet Bound
TTITLE6=07.  J.J. Cale - Cloudy Day
TTITLE7=08. Stevie Ray Vaughan And Double Trouble - Give Me Back My Wi
TTITLE7=g
TTITLE8=09. CHRIS HICKS - Blues Got Me Down
TTITLE9=10. JAMES SOLBERG - See That My Grave Is Kept Clean
TTITLE10=11 - Valerie Wellington - Whole Lotta Shakin' Goin' On
TTITLE11=12. Johnny Winter - Aint That Just Like A Woman
TTITLE12=13. Tropical Whiskey Band - Walking on a Thin Line
TTITLE13=14. Alvin Lee - My Baby's Come Back To Me
TTITLE14=15. John Lee Hooker Featuring Santana - The Healer
TTITLE15=16. Al Kooper - Am I Wrong
TTITLE16=17. Johnny Winter - Stranger Blues
TTITLE17=18. Stevie Ray Vaughan And Double Trouble - Hide Away
EXTD=
EXTT0=
EXTT1=
EXTT2=
EXTT3=
EXTT4=
EXTT5=
EXTT6=
EXTT7=
EXTT8=
EXTT9=
EXTT10=
EXTT11=
EXTT12=
EXTT13=
EXTT14=
EXTT15=
EXTT16=
EXTT17=
PLAYORDER=
